HIERARCHY
ROOT Hips
{
	OFFSET 0.000000 0.300000 0.000000
	CHANNELS 6 Xposition Yposition Zposition Xrotation Yrotation Zrotation
	JOINT Spine
	{
		OFFSET 0.000000 0.080000 0.000000
		CHANNELS 3 Xrotation Yrotation Zrotation
		JOINT Spine1
		{
			OFFSET 0.000000 0.060000 0.000000
			CHANNELS 3 Xrotation Yrotation Zrotation
			JOINT Spine2
			{
				OFFSET 0.000000 0.050000 0.000000
				CHANNELS 3 Xrotation Yrotation Zrotation
				JOINT Neck
				{
					OFFSET 0.000000 0.040000 0.000000
					CHANNELS 3 Xrotation Yrotation Zrotation
					JOINT Head
					{
						OFFSET 0.000000 0.060000 0.000000
						CHANNELS 3 Xrotation Yrotation Zrotation
						End Site
						{
							OFFSET 0.000000 0.030000 0.000000
						}
					}
				}
				JOINT LeftShoulder
				{
					OFFSET 0.050000 0.020000 0.000000
					CHANNELS 3 Xrotation Yrotation Zrotation
					JOINT LeftArm
					{
						OFFSET 0.060000 0.000000 0.000000
						CHANNELS 3 Xrotation Yrotation Zrotation
						JOINT LeftForeArm
						{
							OFFSET 0.070000 0.000000 0.000000
							CHANNELS 3 Xrotation Yrotation Zrotation
							JOINT LeftHand
							{
								OFFSET 0.050000 0.000000 0.000000
								CHANNELS 3 Xrotation Yrotation Zrotation
								End Site
								{
									OFFSET 0.020000 0.000000 0.000000
								}
							}
						}
					}
				}
				JOINT RightShoulder
				{
					OFFSET -0.050000 0.020000 0.000000
					CHANNELS 3 Xrotation Yrotation Zrotation
					JOINT RightArm
					{
						OFFSET -0.060000 0.000000 0.000000
						CHANNELS 3 Xrotation Yrotation Zrotation
						JOINT RightForeArm
						{
							OFFSET -0.070000 0.000000 0.000000
							CHANNELS 3 Xrotation Yrotation Zrotation
							JOINT RightHand
							{
								OFFSET -0.050000 0.000000 0.000000
								CHANNELS 3 Xrotation Yrotation Zrotation
								End Site
								{
									OFFSET -0.020000 0.000000 0.000000
								}
							}
						}
					}
				}
			}
		}
	}
	JOINT LeftHip
	{
		OFFSET 0.040000 -0.020000 0.000000
		CHANNELS 3 Xrotation Yrotation Zrotation
		JOINT LeftLeg
		{
			OFFSET 0.000000 -0.120000 0.000000
			CHANNELS 3 Xrotation Yrotation Zrotation
			JOINT LeftFoot
			{
				OFFSET 0.000000 -0.120000 0.000000
				CHANNELS 3 Xrotation Yrotation Zrotation
				JOINT LeftToe
				{
					OFFSET 0.000000 0.000000 0.040000
					CHANNELS 3 Xrotation Yrotation Zrotation
					End Site
					{
						OFFSET 0.000000 0.000000 0.020000
					}
				}
			}
		}
	}
	JOINT RightHip
	{
		OFFSET -0.040000 -0.020000 0.000000
		CHANNELS 3 Xrotation Yrotation Zrotation
		JOINT RightLeg
		{
			OFFSET 0.000000 -0.120000 0.000000
			CHANNELS 3 Xrotation Yrotation Zrotation
			JOINT RightFoot
			{
				OFFSET 0.000000 -0.120000 0.000000
				CHANNELS 3 Xrotation Yrotation Zrotation
				JOINT RightToe
				{
					OFFSET 0.000000 0.000000 0.040000
					CHANNELS 3 Xrotation Yrotation Zrotation
					End Site
					{
						OFFSET 0.000000 0.000000 0.020000
					}
				}
			}
		}
	}
	JOINT Tail
	{
		OFFSET 0.000000 -0.010000 -0.050000
		CHANNELS 3 Xrotation Yrotation Zrotation
		JOINT Tail1
		{
			OFFSET 0.000000 -0.010000 -0.040000
			CHANNELS 3 Xrotation Yrotation Zrotation
			JOINT Tail2
			{
				OFFSET 0.000000 -0.010000 -0.040000
				CHANNELS 3 Xrotation Yrotation Zrotation
				JOINT Tail3
				{
					OFFSET 0.000000 -0.010000 -0.040000
					CHANNELS 3 Xrotation Yrotation Zrotation
					End Site
					{
						OFFSET 0.000000 0.000000 -0.030000
					}
				}
			}
		}
	}
}
MOTION
Frames: 10
Frame Time: 0.016667
-0.000000 30.000000 0.000000 0.000000 0.000000 0.000000 0.000000 -0.000000 0.000000 0.000000 0.000000 0.000000 0.000000 0.000000 0.000000 0.000000 0.000000 0.000000 -9.998000 -0.299980 0.000000 0.000000 0.000000 0.000000 -88.800080 0.000000 0.000000 0.899940 0.000000 0.000000 0.000000 0.000000 0.000000 0.000000 0.000000 0.000000 -62.293249 0.000000 0.000000 20.780063 0.000000 0.000000 0.000000 0.000000 0.000000 0.000000 0.000000 0.000000 0.000000 0.000000 0.000000 0.000000 0.000000 0.000000 0.000000 0.000000 0.000000 0.000000 0.000000 0.000000 0.000000 0.000000 0.000000 0.000000 0.000000 0.000000 0.000000 0.000000 0.000000 0.000000 -0.499967 0.000000 0.000000 7.418409 0.000000 0.000000 10.549191 0.000000 0.000000 9.246060 0.000000
1.045285 29.687131 0.000000 0.000000 0.000000 0.000000 0.000000 0.522642 0.000000 0.000000 0.000000 0.000000 0.000000 0.000000 0.000000 0.000000 0.000000 0.000000 -9.906193 2.824627 0.000000 0.000000 0.000000 0.000000 -72.603880 0.000000 0.000000 13.047090 0.000000 0.000000 0.000000 0.000000 0.000000 0.000000 0.000000 0.000000 -47.203524 0.000000 0.000000 32.097357 0.000000 0.000000 0.000000 0.000000 0.000000 0.000000 0.000000 0.000000 0.000000 0.000000 0.000000 0.000000 0.000000 0.000000 0.000000 0.000000 0.000000 0.000000 0.000000 0.000000 0.000000 0.000000 0.000000 0.000000 0.000000 0.000000 0.000000 0.000000 0.000000 0.000000 9.709640 0.000000 0.000000 14.331493 0.000000 0.000000 13.974485 0.000000 0.000000 9.996057 0.000000
2.079117 29.381966 0.000000 0.000000 0.000000 0.000000 0.000000 1.039558 0.000000 0.000000 0.000000 0.000000 0.000000 0.000000 0.000000 0.000000 0.000000 0.000000 -9.570462 5.825784 0.000000 0.000000 0.000000 0.000000 -55.710694 0.000000 0.000000 25.716980 0.000000 0.000000 0.000000 0.000000 0.000000 0.000000 0.000000 0.000000 -36.303016 0.000000 0.000000 40.272738 0.000000 0.000000 0.000000 0.000000 0.000000 0.000000 0.000000 0.000000 0.000000 0.000000 0.000000 0.000000 0.000000 0.000000 0.000000 0.000000 0.000000 0.000000 0.000000 0.000000 0.000000 0.000000 0.000000 0.000000 0.000000 0.000000 0.000000 0.000000 0.000000 0.000000 18.240362 0.000000 0.000000 18.766531 0.000000 0.000000 14.983463 0.000000 0.000000 9.017645 0.000000
3.090170 29.092019 0.000000 0.000000 0.000000 0.000000 0.000000 1.545085 0.000000 0.000000 0.000000 0.000000 0.000000 0.000000 0.000000 0.000000 0.000000 0.000000 -8.999075 8.572327 0.000000 0.000000 0.000000 0.000000 -42.173983 0.000000 0.000000 35.869512 0.000000 0.000000 0.000000 0.000000 0.000000 0.000000 0.000000 0.000000 -30.658743 0.000000 0.000000 44.505943 0.000000 0.000000 0.000000 0.000000 0.000000 0.000000 0.000000 0.000000 0.000000 0.000000 0.000000 0.000000 0.000000 0.000000 0.000000 0.000000 0.000000 0.000000 0.000000 0.000000 0.000000 0.000000 0.000000 0.000000 0.000000 0.000000 0.000000 0.000000 0.000000 0.000000 23.617160 0.000000 0.000000 19.956666 0.000000 0.000000 13.401664 0.000000 0.000000 6.480000 0.000000
4.067366 28.824429 0.000000 0.000000 0.000000 0.000000 0.000000 2.033683 0.000000 0.000000 0.000000 0.000000 0.000000 0.000000 0.000000 0.000000 0.000000 0.000000 -8.206101 10.944217 0.000000 0.000000 0.000000 0.000000 -33.318817 0.000000 0.000000 42.510887 0.000000 0.000000 0.000000 0.000000 0.000000 0.000000 0.000000 0.000000 -30.823205 0.000000 0.000000 44.382596 0.000000 0.000000 0.000000 0.000000 0.000000 0.000000 0.000000 0.000000 0.000000 0.000000 0.000000 0.000000 0.000000 0.000000 0.000000 0.000000 0.000000 0.000000 0.000000 0.000000 0.000000 0.000000 0.000000 0.000000 0.000000 0.000000 0.000000 0.000000 0.000000 0.000000 24.910336 0.000000 0.000000 17.696111 0.000000 0.000000 9.502595 0.000000 0.000000 2.821904 0.000000
5.000000 28.585786 0.000000 0.000000 0.000000 0.000000 0.000000 2.500000 0.000000 0.000000 0.000000 0.000000 0.000000 0.000000 0.000000 0.000000 0.000000 0.000000 -7.211066 12.837793 0.000000 0.000000 0.000000 0.000000 -30.012000 0.000000 0.000000 44.991000 0.000000 0.000000 0.000000 0.000000 0.000000 0.000000 0.000000 0.000000 -36.780305 0.000000 0.000000 39.914772 0.000000 0.000000 0.000000 0.000000 0.000000 0.000000 0.000000 0.000000 0.000000 0.000000 0.000000 0.000000 0.000000 0.000000 0.000000 0.000000 0.000000 0.000000 0.000000 0.000000 0.000000 0.000000 0.000000 0.000000 0.000000 0.000000 0.000000 0.000000 0.000000 0.000000 21.896288 0.000000 0.000000 12.375739 0.000000 0.000000 3.960442 0.000000 0.000000 -1.324124 0.000000
5.877853 28.381966 0.000000 0.000000 0.000000 0.000000 0.000000 2.938926 0.000000 0.000000 0.000000 0.000000 0.000000 0.000000 0.000000 0.000000 0.000000 0.000000 -6.038470 14.170296 0.000000 0.000000 0.000000 0.000000 -32.577226 0.000000 0.000000 43.067081 0.000000 0.000000 0.000000 0.000000 0.000000 0.000000 0.000000 0.000000 -47.946919 0.000000 0.000000 31.539811 0.000000 0.000000 0.000000 0.000000 0.000000 0.000000 0.000000 0.000000 0.000000 0.000000 0.000000 0.000000 0.000000 0.000000 0.000000 0.000000 0.000000 0.000000 0.000000 0.000000 0.000000 0.000000 0.000000 0.000000 0.000000 0.000000 0.000000 0.000000 0.000000 0.000000 15.096174 0.000000 0.000000 4.915488 0.000000 0.000000 -2.266508 0.000000 0.000000 -5.241200 0.000000
6.691306 28.217987 0.000000 0.000000 0.000000 0.000000 0.000000 3.345653 0.000000 0.000000 0.000000 0.000000 0.000000 0.000000 0.000000 0.000000 0.000000 0.000000 -4.717186 14.883489 0.000000 0.000000 0.000000 0.000000 -40.763393 0.000000 0.000000 36.927455 0.000000 0.000000 0.000000 0.000000 0.000000 0.000000 0.000000 0.000000 -63.229981 0.000000 0.000000 20.077514 0.000000 0.000000 0.000000 0.000000 0.000000 0.000000 0.000000 0.000000 0.000000 0.000000 0.000000 0.000000 0.000000 0.000000 0.000000 0.000000 0.000000 0.000000 0.000000 0.000000 0.000000 0.000000 0.000000 0.000000 0.000000 0.000000 0.000000 0.000000 0.000000 0.000000 5.685794 0.000000 0.000000 -3.394695 0.000000 0.000000 -8.101558 0.000000 0.000000 -8.252024 0.000000
7.431448 28.097887 0.000000 0.000000 0.000000 0.000000 0.000000 3.715724 0.000000 0.000000 0.000000 0.000000 0.000000 0.000000 0.000000 0.000000 0.000000 0.000000 -3.279751 14.946201 0.000000 0.000000 0.000000 0.000000 -53.769182 0.000000 0.000000 27.173113 0.000000 0.000000 0.000000 0.000000 0.000000 0.000000 0.000000 0.000000 -81.133480 0.000000 0.000000 6.649890 0.000000 0.000000 0.000000 0.000000 0.000000 0.000000 0.000000 0.000000 0.000000 0.000000 0.000000 0.000000 0.000000 0.000000 0.000000 0.000000 0.000000 0.000000 0.000000 0.000000 0.000000 0.000000 0.000000 0.000000 0.000000 0.000000 0.000000 0.000000 0.000000 0.000000 -4.707712 0.000000 0.000000 -11.117904 0.000000 0.000000 -12.535775 0.000000 0.000000 -9.835999 0.000000
8.090170 28.024623 0.000000 0.000000 0.000000 0.000000 0.000000 4.045085 0.000000 0.000000 0.000000 0.000000 0.000000 0.000000 0.000000 0.000000 0.000000 0.000000 -1.761556 14.355694 0.000000 0.000000 0.000000 0.000000 -70.321497 0.000000 0.000000 14.758877 0.000000 0.000000 0.000000 0.000000 0.000000 0.000000 0.000000 0.000000 -80.095105 0.000000 0.000000 7.428672 0.000000 0.000000 0.000000 0.000000 0.000000 0.000000 0.000000 0.000000 0.000000 0.000000 0.000000 0.000000 0.000000 0.000000 0.000000 0.000000 0.000000 0.000000 0.000000 0.000000 0.000000 0.000000 0.000000 0.000000 0.000000 0.000000 0.000000 0.000000 0.000000 0.000000 -14.287211 0.000000 0.000000 -16.918727 0.000000 0.000000 -14.802442 0.000000 0.000000 -9.719240 0.000000
